<svg xmlns="http://www.w3.org/2000/svg" viewBox="0 0 326.14 326.14"><defs><style>.cls-1,.cls-3{fill:#3e6e90;}.cls-1{stroke:#fe9939;stroke-miterlimit:10;}.cls-2{fill:#fe9939;}.cls-4{fill:none;stroke:#180d81;}</style></defs><g id="Capa_2" data-name="Capa 2"><circle class="cls-1" cx="163.07" cy="163.07" r="162.57"/></g><g id="Capa_1" data-name="Capa 1"><path class="cls-2" d="M254.82,181l.47-5.21h22.36l-8.71,72H246.39c.66,0,1.32-10.61,1.32-10.61s-9.37,14.21-23.58,11.94c0,0-9.19-1-13.84-7,0,0-3.5-3.51-5.87-12.22s0-20.65,0-20.65l.85-4.55a49,49,0,0,1,5.31-12.89s7.77-16.48,26-17.33C236.54,174.46,247.24,173.13,254.82,181Z" transform="translate(-65.82 -37.02)"/><polygon class="cls-2" points="224.34 113 258.45 113 240.07 220.24 216.38 220.24 224.34 113"/><path class="cls-3" d="M253.16,199.87a.81.81,0,0,0-.17-.62,14.05,14.05,0,0,0-10.71-5s-4.92-1.14-9.72,4.23c0,0-3,2-5.81,11.25a29,29,0,0,0-.7,12.06,9.22,9.22,0,0,0,3,5.87,7.44,7.44,0,0,0,8.59,1s3.73-.57,7.83-6.57c0,0,4-4.27,6.8-16.33,0-.06,0-.12,0-.18Z" transform="translate(-65.82 -37.02)"/><polygon class="cls-2" points="104.4 67.53 117.86 122.38 141.82 67.53 172.99 67.53 129.04 155.44 122.4 223.75 94.93 223.75 101.47 155.63 74.56 67.53 104.4 67.53"/><path class="cls-4" d="M64.68,134.66" transform="translate(-65.82 -37.02)"/><path class="cls-2" d="M290.73,274.31s13.83-.38,17.43,12.88c0,0,2.27,6-.76,14.12s-12.6,10.52-12.6,10.52-12.7,2.93-19.8-5.78-3.22-19.61-3.22-19.61S275.28,274.21,290.73,274.31Z" transform="translate(-65.82 -37.02)"/></g></svg>